<?xml version="1.0" encoding="UTF-8"?>
<svg id="Layer_1" xmlns="http://www.w3.org/2000/svg" version="1.1" viewBox="0 0 1366 768">
  <!-- Generator: Adobe Illustrator 30.1.0, SVG Export Plug-In . SVG Version: 2.1.1 Build 136)  -->
  <defs>
    <style>
      .st0 {
        fill: #565e6e;
      }

      .st1 {
        fill: #045bbe;
      }

      .st2 {
        fill: #293144;
      }

      .st3 {
        fill: #2c3850;
      }
    </style>
  </defs>
  <g>
    <path class="st2" d="M265.26,295.84c-4.42,4.02-7.29,8.09-11.13,12.45l-59.14,67.17-7.06,8.07-23.63,26.6-13.38-14.97-22.84-26.08-44.74-50.89c-6.09-6.93-11.22-13.73-18.39-20.59l-.17,212.61-48.92.02c-.43-8.19-.41-16.29-.42-24.7l-.03-22.15-.04-211.85.38-12.06h55.51c2.02.02,3.74.19,5.63.52l28.4,32.15,59.61,68.15,70.43-81.01,17.39-19.56,62.07-.25-.04,211.1h-48.87s-.21-38.79-.21-38.79c-.19-11.45-.49-22.44.04-33.89l-.18-33.87-.25-48.16Z"/>
    <path class="st1" d="M313.46,510.39l-113.14.06-.07-23.98-.1-52.77.17-43.51,17.94-18.23,6.54-6.65c7.85-7.98,14.96-15.78,24.17-24.12l.3,124.24c0,1.05.17,2.67,1.31,2.67l37.7.18,26.32.11.13,39c0,.55.16,2.99-1.27,2.99Z"/>
  </g>
  <g>
    <path class="st3" d="M490.01,347.92l-.28-68.24-12.55,14.35-22.45,26.71c-.86,1.03-4.64,2.15-5.58,1.05l-19.73-23.32-16.3-18.79-.16,68.12-21.97.26c-1.28.02-3.4-1.86-3.4-3.3l.06-105.19,24.07-.1c1.09.69,3.43,2.98,4.19,3.92l10.77,13.31,24.88,30.27,17.97-21.77,21.11-25.57,24.7.03-.06,108.3-25.26-.02Z"/>
    <path class="st3" d="M653.09,348.4l-.11-87.57,19.5-.39c1.36-.03,4.31,1.63,5.24,2.59l10.75,11.29,20.85,21.91c6.24,6.55,11.46,12.16,18.8,19.01l.16-54.58h22.68s.1,87.59.1,87.59l-22.17.29-22.91-24.18-29.89-31.37-.45,55.37-22.55.04Z"/>
    <path class="st3" d="M635.94,314.77c-6.65,30.07-41.52,40.89-71.75,32.58-17.68-4.86-30.48-18.95-33.02-36.66-3.79-26.41,14.12-48.14,41.45-51.83,13.24-1.79,26.13-.93,38.26,4.59,20.81,9.47,29.79,29.92,25.06,51.32ZM590.67,330.82c12.8-2.35,21.18-11.33,23.02-22.72,1.79-11.07-3.17-22.14-13.85-27.65-9.56-4.94-21.38-5.1-31.07-.39-10.75,5.23-15.92,16.13-14.4,27.36,2.38,17.59,18.43,26.67,36.3,23.4Z"/>
    <path class="st3" d="M1068.37,286.77c10.24,25.01-.95,51.25-29.21,60.42-24.43,7.93-56.81.94-68.97-22.93-7-13.75-6.48-30.55,1.84-43.61,15.06-23.62,52.65-28.14,76.02-15.64,6.62,3.54,12.71,8.29,16.38,14.33l3.93,7.44ZM1038.26,325.5c14.53-11.42,13.8-32.67-.87-43.06-10.35-7.33-24.61-7.36-35.39-1.21-9.73,5.55-13.95,15.76-12.78,26.22,1.49,13.28,12.09,22.96,26.44,24.08,7.48.58,16.08-.9,22.6-6.03Z"/>
    <path class="st3" d="M953.79,344.38c-.16,1.5-2.77,2.37-4.8,2.34l-20.32-.39-19.65-23.26-17.8-.23-.44,25.61-22.67-.03-.12-87.65,48.03-.14c7.3-.02,14.49,1.96,21.17,4.23,15.46,7.66,18.92,24.33,13.75,38.42-2.94,8.01-8.8,12.38-17.02,16.8l12.82,15.35c2.58,3.09,4.91,6.09,7.05,8.95ZM927.22,299.95c3.74-5.52,3.52-11.68,0-16.55-1.79-2.49-7.56-4.68-11.01-4.69l-25.24-.04.13,26.34,25.16-.06c3.32,0,9.1-2.26,10.95-5Z"/>
    <path class="st3" d="M1250.89,313.58l-47.5.21-.24,13.67c-.02,1.14,2.15,2.79,3.14,2.79l51.8-.04-.25,18.26-77.4.04-.03-87.84,75.85-.05.38,18.32-53.11.08-.13,16.48h47.48s0,18.08,0,18.08Z"/>
    <path class="st3" d="M1151.25,344.67c-19.96,10.36-50.95,6.03-69.5-7.46l12.25-15.31c11.82,8.31,29.8,14.14,43.13,8.27,1.57-.69,3.62-4.03,3.76-5.65.61-6.84-10.87-8.58-16.41-10.01l-20.04-5.17c-6.14-1.58-12.43-6.02-15.63-11.22-4.9-7.95-4.53-18.16.62-25.89,10.49-15.78,38.89-16.22,55.26-11.18,6.37,1.96,11.2,4.24,18.19,7.42l-10.9,15.95c-12.36-5.92-24.73-11.37-38.28-6.21-2,.76-4.23,4.23-4.33,6.02-.89,15.33,56.53,5.6,54.66,39.73-.48,8.69-4.51,16.4-12.78,20.69Z"/>
    <polygon class="st3" points="821.36 348.36 798.31 348.43 798.11 279.1 765.78 278.77 766.02 260.71 853.53 260.62 853.74 278.86 821.51 279 821.36 348.36"/>
    <path class="st0" d="M1258.16,378.54l-869.61,1.47c-.92,0-1.52-2.06-1.18-2.94,290.4,1.43,579.71-1.48,870.8,1.47Z"/>
    <path class="st3" d="M1023.71,447.23c-3.02.1-5.46-.7-6.56-2.11l-10.17-13.14-10.24-12.28-.5,26.21c-.03,1.45-4.48,1.53-4.99.47l-.03-35.45c1.5-1,5.45-.22,5.56,1.13l4.27,4.99,17.15,20.04.57-25.7c.03-1.18,4.29-.82,4.92.05l.02,35.8Z"/>
    <path class="st3" d="M611.77,433.85l-6.82-.86v-3.91s11.73.17,11.73.17l-.27,15.66c-7.29,3.34-15.08,4.25-22.57,1.22-7.02-2.84-10.65-9.37-10.65-16.6,0-6.43,2.41-12.99,8.09-16.57,7.37-4.65,16.79-4.14,24.25-.3l-1.21,3.83c-3.83-.85-7.89-1.95-11.15-1.96-9.14-.04-14.78,6.93-14.22,15.03.34,4.96,2.37,10.17,7.47,12.31,4.4,1.85,9.82,1.48,14.79.44l.56-8.46Z"/>
    <path class="st3" d="M921.54,446.53l-8.33-10.86c-1.45-1.89-6.85-3.19-7.8-1.31l-.79,11.92c-.08,1.27-5,1.12-5-.62l-.13-35.2c5.75-.2,11.14-.26,16.48.15,6.71.51,10.63,5.81,10.19,11.86-.35,4.81-3.57,8.17-8.35,10.61l10.8,13.69c-1.12.57-6.17.97-7.09-.24ZM917.13,427.75c2.03-.43,4-4.9,3.67-6.83-1.19-6.99-9.74-5.91-15.78-5.85l.16,13.96c4.84-.3,7.92-.42,11.96-1.28Z"/>
    <path class="st3" d="M1118.96,446.84c-6.68,3.02-10.37-4.42-15.06-10.94-1.34-1.86-7.81-3.89-7.97-1.58l-.83,12.08c-.06,1.19-5,.89-5-.81l-.03-35.07c10.19-.23,23.72-2.43,26.25,8.27,1.61,6.8-2.02,11.76-8.67,13.89l11.32,14.17ZM1106.82,428.19c2.11-.4,4.38-4.44,4.48-6.34s-2.38-5.91-4.51-6.16c-3.92-.46-7.66-.66-11.5-.83l.13,13.88c3.52.16,7.56.18,11.4-.54Z"/>
    <path class="st3" d="M1065.92,430.78l-14.88.24-.21,11.78,18.36-.03c1.25,0,1.63,4.29.42,4.3l-24.09.29-.11-37.18,23.99-.03.53,4.66-19.06.21.02,11.07,15.47.24c.67.02.57,4.42-.44,4.44Z"/>
    <path class="st3" d="M825.08,433.62c-2.97.71-7.04.81-10.42.81l-2.77,1.6-.04,11.09-5.26-.03.21-36.81c5.8-.03,10.82-.05,16.17.24,6.71.36,10.94,5.88,10.91,11.89-.02,5.01-2.51,9.7-8.8,11.2ZM823.4,429.12c2.6-.19,5.08-5.16,4.87-7.28-.19-1.89-2.56-5.91-4.84-6.17-3.14-.36-7.03-.56-11.43-.76l.03,15.05,11.37-.84Z"/>
    <path class="st3" d="M662.13,444.16l-3.38-6.3-15.67-.04-3.56,6.41c-.79,1.43-1.43,2.57-2.3,3.05s-3.89-.59-4.24-1.08l15.25-35.74,5.44.27,9.37,22.39,5.66,13.42-4.37.8c-.98.18-1.54-1.94-2.2-3.17ZM657.87,433.31l-7.26-15.69-6.71,15.77,13.97-.08Z"/>
    <path class="st3" d="M560.68,430.85l-14.15.08-.23,11.77,18.6.27c.89.23.8,3.94-.13,4.35l-23.84-.11-.21-37.06,24.58.08-.45,4.59-18.31.17-.36,11.12,15.25.3c1.36.03.97,4.44-.75,4.45Z"/>
    <path class="st3" d="M872.45,437.91l-16.94-.16-4.28,9.33-5.4-.03,6.59-16.06,8.46-19.45c.45-1.02,4.35-1.91,5.02-1.13s1.54,2.12,2.13,3.51l13.95,32.64c-.64.62-5.06,1.16-5.62-.07l-3.91-8.57ZM870.93,433.17l-7.07-15.8-6.75,15.98,13.82-.18Z"/>
    <path class="st3" d="M1152.67,447.37c-5.89,1.48-12.06.06-17.4-2.13l.85-4.51c5.22,1.95,18.19,4.84,19.36-2.35.25-1.52-1.64-4.95-3.19-5.55l-10.88-4.29c-3.21-1.27-6-5.27-6.05-7.83-.08-4.23,2.03-7.85,6.28-9.72,5.2-2.28,14.02-1.24,17.54,1.43.49.37-.21,3.56-.83,3.46l-3.04-.49c-3.25-.52-12.58-2.65-14.12,3-.41,1.52,1.62,4.84,3.19,5.47l9.98,3.99c4,1.6,6.88,5.82,6.82,9.35-.08,4.47-2.77,8.7-8.5,10.15Z"/>
    <path class="st3" d="M694.04,439.89c8.06,7.43,19.85-.09,20.3,1.5l1.08,3.8c-7.35,3.26-15.16,3.99-22.6.36-10.98-5.35-12.94-23.38-2.08-31.89,6.28-4.92,16-5.15,23.05-1.75,1.18.57.5,4.74-.73,4.37-6.13-1.97-13.26-3.08-18.41,1.15-6.96,5.74-7.28,16.34-.63,22.46Z"/>
    <path class="st3" d="M960.59,446.26c-.01,1.22-5.14,1.38-5.14.13l-.13-31.12-11.64-.41c-1.04-.04-1.65-4.35-.32-4.37l29.23-.4.85,4.64-12.5.5-.34,31.03Z"/>
    <path class="st3" d="M763.33,410.94l-13.85,22.25-.35,13.08c-.04,1.32-4.89,1.4-5.26.29l-.21-13.45-14.39-22.19c2-1.43,6.14-.52,7.48,1.58l9.86,15.51,10.66-17.21,6.06.13Z"/>
    <path class="st3" d="M521.16,442.97c1.54.04,1.68,4.09.64,4.29l-21.58.07-.27-36.31c.76-1.07,5.5-.89,5.5.62v30.94s15.71.38,15.71.38Z"/>
    <path class="st0" d="M928.67,346.33l20.32.39c2.03.04,4.64-.84,4.8-2.34.68.9,2.28,2.21,3.73,3.78l-7.45.24-21.11.65-.28-2.73Z"/>
  </g>
</svg>