<?xml version="1.0" encoding="UTF-8"?>
<svg id="Layer_1" data-name="Layer 1" xmlns="http://www.w3.org/2000/svg" viewBox="0 0 299.41 270.99">
  <defs>
    <style>
      .cls-1 {
        fill: #045bbe;
      }

      .cls-2 {
        fill: #293144;
      }
    </style>
  </defs>
  <path class="cls-2" d="M249.89,56.38c-4.42,4.02-7.29,8.09-11.13,12.45l-59.14,67.17-7.06,8.07-23.63,26.6-13.38-14.97-22.84-26.08-44.74-50.89c-6.09-6.93-11.22-13.73-18.39-20.59l-.17,212.61-48.92.02c-.43-8.19-.41-16.29-.42-24.7l-.03-22.15-.04-211.85L.38,0h55.51c2.02.02,3.74.19,5.63.52l28.4,32.15,59.61,68.15L219.96,19.82,237.34.25l62.07-.25-.04,211.1h-48.87s-.21-38.79-.21-38.79c-.19-11.45-.49-22.44.04-33.89l-.18-33.87-.25-48.16Z"/>
  <path class="cls-1" d="M298.09,270.93l-113.14.06-.07-23.98-.1-52.77.17-43.51,17.94-18.23,6.54-6.65c7.85-7.98,14.96-15.78,24.17-24.12l.3,124.24c0,1.05.17,2.67,1.31,2.67l37.7.18,26.32.11.13,39c0,.55.16,2.99-1.27,2.99Z"/>
</svg>